# Blender 5.0.0
# www.blender.org
mtllib circle.mtl
o Circle
v 0.000000 0.000000 -1.000000
v -0.062791 0.000000 -0.998027
v -0.125333 0.000000 -0.992115
v -0.187381 0.000000 -0.982287
v -0.248690 0.000000 -0.968583
v -0.309017 0.000000 -0.951057
v -0.368125 0.000000 -0.929776
v -0.425779 0.000000 -0.904827
v -0.481754 0.000000 -0.876307
v -0.535827 0.000000 -0.844328
v -0.587785 0.000000 -0.809017
v -0.637424 0.000000 -0.770513
v -0.684547 0.000000 -0.728969
v -0.728969 0.000000 -0.684547
v -0.770513 0.000000 -0.637424
v -0.809017 0.000000 -0.587785
v -0.844328 0.000000 -0.535827
v -0.876307 0.000000 -0.481754
v -0.904827 0.000000 -0.425779
v -0.929776 0.000000 -0.368125
v -0.951057 0.000000 -0.309017
v -0.968583 0.000000 -0.248690
v -0.982287 0.000000 -0.187381
v -0.992115 0.000000 -0.125333
v -0.998027 0.000000 -0.062791
v -1.000000 0.000000 0.000000
v -0.998027 0.000000 0.062791
v -0.992115 0.000000 0.125333
v -0.982287 0.000000 0.187381
v -0.968583 0.000000 0.248690
v -0.951057 0.000000 0.309017
v -0.929776 0.000000 0.368125
v -0.904827 0.000000 0.425779
v -0.876307 0.000000 0.481754
v -0.844328 0.000000 0.535827
v -0.809017 0.000000 0.587785
v -0.770513 0.000000 0.637424
v -0.728969 0.000000 0.684547
v -0.684547 0.000000 0.728969
v -0.637424 0.000000 0.770513
v -0.587785 0.000000 0.809017
v -0.535827 0.000000 0.844328
v -0.481754 0.000000 0.876307
v -0.425779 0.000000 0.904827
v -0.368125 0.000000 0.929776
v -0.309017 0.000000 0.951057
v -0.248690 0.000000 0.968583
v -0.187381 0.000000 0.982287
v -0.125333 0.000000 0.992115
v -0.062791 0.000000 0.998027
v 0.000000 0.000000 1.000000
v 0.062791 0.000000 0.998027
v 0.125333 0.000000 0.992115
v 0.187381 0.000000 0.982287
v 0.248690 0.000000 0.968583
v 0.309017 0.000000 0.951057
v 0.368125 0.000000 0.929776
v 0.425779 0.000000 0.904827
v 0.481754 0.000000 0.876307
v 0.535827 0.000000 0.844328
v 0.587785 0.000000 0.809017
v 0.637424 0.000000 0.770513
v 0.684547 0.000000 0.728969
v 0.728969 0.000000 0.684547
v 0.770513 0.000000 0.637424
v 0.809017 0.000000 0.587785
v 0.844328 0.000000 0.535827
v 0.876307 0.000000 0.481754
v 0.904827 0.000000 0.425779
v 0.929776 0.000000 0.368125
v 0.951057 0.000000 0.309017
v 0.968583 0.000000 0.248690
v 0.982287 0.000000 0.187381
v 0.992115 0.000000 0.125333
v 0.998027 0.000000 0.062791
v 1.000000 0.000000 0.000000
v 0.998027 0.000000 -0.062791
v 0.992115 0.000000 -0.125333
v 0.982287 0.000000 -0.187381
v 0.968583 0.000000 -0.248690
v 0.951057 0.000000 -0.309017
v 0.929776 0.000000 -0.368125
v 0.904827 0.000000 -0.425779
v 0.876307 0.000000 -0.481754
v 0.844328 0.000000 -0.535827
v 0.809017 0.000000 -0.587785
v 0.770513 0.000000 -0.637424
v 0.728969 0.000000 -0.684547
v 0.684547 0.000000 -0.728969
v 0.637424 0.000000 -0.770513
v 0.587785 0.000000 -0.809017
v 0.535827 0.000000 -0.844328
v 0.481754 0.000000 -0.876307
v 0.425779 0.000000 -0.904827
v 0.368125 0.000000 -0.929776
v 0.309017 0.000000 -0.951057
v 0.248690 0.000000 -0.968583
v 0.187381 0.000000 -0.982287
v 0.125333 0.000000 -0.992115
v 0.062791 0.000000 -0.998027
vn -0.0000 1.0000 -0.0000
vt 0.500000 1.000000
vt 0.468605 0.999013
vt 0.437333 0.996057
vt 0.406309 0.991144
vt 0.375655 0.984292
vt 0.345491 0.975528
vt 0.315938 0.964888
vt 0.287110 0.952414
vt 0.259123 0.938153
vt 0.232087 0.922164
vt 0.206107 0.904508
vt 0.181288 0.885257
vt 0.157726 0.864484
vt 0.135516 0.842274
vt 0.114743 0.818712
vt 0.095491 0.793893
vt 0.077836 0.767913
vt 0.061847 0.740877
vt 0.047586 0.712890
vt 0.035112 0.684062
vt 0.024472 0.654508
vt 0.015708 0.624345
vt 0.008856 0.593691
vt 0.003943 0.562667
vt 0.000987 0.531395
vt 0.000000 0.500000
vt 0.000987 0.468605
vt 0.003943 0.437333
vt 0.008856 0.406309
vt 0.015708 0.375655
vt 0.024472 0.345491
vt 0.035112 0.315938
vt 0.047586 0.287110
vt 0.061847 0.259123
vt 0.077836 0.232087
vt 0.095491 0.206107
vt 0.114743 0.181288
vt 0.135516 0.157726
vt 0.157726 0.135516
vt 0.181288 0.114743
vt 0.206107 0.095491
vt 0.232087 0.077836
vt 0.259123 0.061847
vt 0.287110 0.047586
vt 0.315938 0.035112
vt 0.345491 0.024472
vt 0.375655 0.015708
vt 0.406309 0.008856
vt 0.437333 0.003943
vt 0.468605 0.000987
vt 0.500000 0.000000
vt 0.531395 0.000987
vt 0.562667 0.003943
vt 0.593691 0.008856
vt 0.624345 0.015708
vt 0.654508 0.024472
vt 0.684062 0.035112
vt 0.712890 0.047586
vt 0.740877 0.061847
vt 0.767913 0.077836
vt 0.793893 0.095491
vt 0.818712 0.114743
vt 0.842274 0.135516
vt 0.864484 0.157726
vt 0.885257 0.181288
vt 0.904508 0.206107
vt 0.922164 0.232087
vt 0.938153 0.259123
vt 0.952414 0.287110
vt 0.964888 0.315938
vt 0.975528 0.345491
vt 0.984292 0.375655
vt 0.991144 0.406309
vt 0.996057 0.437333
vt 0.999013 0.468605
vt 1.000000 0.500000
vt 0.999013 0.531395
vt 0.996057 0.562667
vt 0.991144 0.593691
vt 0.984292 0.624345
vt 0.975528 0.654508
vt 0.964888 0.684062
vt 0.952414 0.712890
vt 0.938153 0.740877
vt 0.922164 0.767913
vt 0.904508 0.793893
vt 0.885257 0.818712
vt 0.864484 0.842274
vt 0.842274 0.864484
vt 0.818712 0.885257
vt 0.793893 0.904508
vt 0.767913 0.922164
vt 0.740877 0.938153
vt 0.712890 0.952414
vt 0.684062 0.964888
vt 0.654508 0.975528
vt 0.624345 0.984292
vt 0.593691 0.991144
vt 0.562667 0.996057
vt 0.531395 0.999013
s 0
f 1/1/1 2/2/1 3/3/1 4/4/1 5/5/1 6/6/1 7/7/1 8/8/1 9/9/1 10/10/1 11/11/1 12/12/1 13/13/1 14/14/1 15/15/1 16/16/1 17/17/1 18/18/1 19/19/1 20/20/1 21/21/1 22/22/1 23/23/1 24/24/1 25/25/1 26/26/1 27/27/1 28/28/1 29/29/1 30/30/1 31/31/1 32/32/1 33/33/1 34/34/1 35/35/1 36/36/1 37/37/1 38/38/1 39/39/1 40/40/1 41/41/1 42/42/1 43/43/1 44/44/1 45/45/1 46/46/1 47/47/1 48/48/1 49/49/1 50/50/1 51/51/1 52/52/1 53/53/1 54/54/1 55/55/1 56/56/1 57/57/1 58/58/1 59/59/1 60/60/1 61/61/1 62/62/1 63/63/1 64/64/1 65/65/1 66/66/1 67/67/1 68/68/1 69/69/1 70/70/1 71/71/1 72/72/1 73/73/1 74/74/1 75/75/1 76/76/1 77/77/1 78/78/1 79/79/1 80/80/1 81/81/1 82/82/1 83/83/1 84/84/1 85/85/1 86/86/1 87/87/1 88/88/1 89/89/1 90/90/1 91/91/1 92/92/1 93/93/1 94/94/1 95/95/1 96/96/1 97/97/1 98/98/1 99/99/1 100/100/1
