# Blender 5.0.0
# www.blender.org
mtllib slit.mtl
o Cube
v -1.000000 -0.010000 1.000000
v -1.000000 0.010000 1.000000
v -1.000000 -0.010000 -1.000000
v -1.000000 0.010000 -1.000000
v 1.000000 -0.010000 1.000000
v 1.000000 0.010000 1.000000
v 1.000000 -0.010000 -1.000000
v 1.000000 0.010000 -1.000000
v -0.010000 -0.010000 -0.500000
v 0.010000 -0.010000 -0.500000
v -0.010000 -0.010000 0.500000
v 0.010000 -0.010000 0.500000
v 0.010000 0.010000 -0.500000
v -0.010000 0.010000 -0.500000
v -0.010000 0.010000 0.500000
v 0.010000 0.010000 0.500000
vn -1.0000 -0.0000 -0.0000
vn -0.0000 -0.0000 -1.0000
vn 1.0000 -0.0000 -0.0000
vn -0.0000 -0.0000 1.0000
vn -0.0000 -1.0000 -0.0000
vn -0.0000 1.0000 -0.0000
vt 0.625000 0.000000
vt 0.375000 0.250000
vt 0.375000 0.000000
vt 0.625000 0.250000
vt 0.375000 0.500000
vt 0.625000 0.500000
vt 0.375000 0.750000
vt 0.625000 0.750000
vt 0.375000 1.000000
vt 0.125000 0.500000
vt 0.248750 0.562500
vt 0.125000 0.750000
vt 0.251250 0.687500
vt 0.875000 0.750000
vt 0.748750 0.687500
vt 0.751250 0.687500
vt 0.875000 0.500000
vt 0.748750 0.562500
vt 0.497500 0.000000
vt 0.502500 0.250000
vt 0.502500 0.000000
vt 0.497500 0.250000
vt 0.502500 0.500000
vt 0.497500 0.750000
vt 0.497500 0.500000
vt 0.497500 1.000000
vt 0.502500 0.750000
vt 0.625000 1.000000
vt 0.248750 0.687500
vt 0.251250 0.562500
vt 0.751250 0.562500
vt 0.502500 1.000000
s 0
f 2/1/1 3/2/1 1/3/1
f 4/4/2 7/5/2 3/2/2
f 8/6/3 5/7/3 7/5/3
f 6/8/4 1/9/4 5/7/4
f 3/10/5 7/5/5 9/11/5
f 1/12/5 12/13/5 5/7/5
f 2/14/6 16/15/6 15/16/6
f 8/6/6 4/17/6 13/18/6
f 11/19/3 14/20/3 15/21/3
f 9/22/4 13/23/4 14/20/4
f 12/24/1 13/23/1 10/25/1
f 11/26/2 16/27/2 12/24/2
f 2/1/1 4/4/1 3/2/1
f 4/4/2 8/6/2 7/5/2
f 8/6/3 6/8/3 5/7/3
f 6/8/4 2/28/4 1/9/4
f 9/11/5 11/29/5 1/12/5
f 7/5/5 5/7/5 12/13/5
f 7/5/5 12/13/5 10/30/5
f 9/11/5 1/12/5 3/10/5
f 7/5/5 10/30/5 9/11/5
f 1/12/5 11/29/5 12/13/5
f 2/14/6 6/8/6 16/15/6
f 13/18/6 16/15/6 6/8/6
f 4/17/6 2/14/6 15/16/6
f 4/17/6 15/16/6 14/31/6
f 13/18/6 6/8/6 8/6/6
f 4/17/6 14/31/6 13/18/6
f 11/19/3 9/22/3 14/20/3
f 9/22/4 10/25/4 13/23/4
f 12/24/1 16/27/1 13/23/1
f 11/26/2 15/32/2 16/27/2
